<mxfile host="app.diagrams.net" modified="2023-11-06T14:38:17.729Z" agent="Mozilla/5.0 (Windows NT 10.0; Win64; x64) AppleWebKit/537.36 (KHTML, like Gecko) Chrome/119.0.0.0 Safari/537.36 Edg/119.0.0.0" etag="XnjEn2xU3mvlRYniWoLN" version="22.0.8" type="device">
  <diagram name="Page-1" id="FegYOU-LW_85X3Mw4wne">
    <mxGraphModel dx="1002" dy="1665" grid="1" gridSize="10" guides="1" tooltips="1" connect="1" arrows="1" fold="1" page="1" pageScale="1" pageWidth="850" pageHeight="1100" math="0" shadow="0">
      <root>
        <mxCell id="0" />
        <mxCell id="1" parent="0" />
        <mxCell id="IDAZCTwYJbUhhLkXq8a2-3" value="" style="edgeStyle=orthogonalEdgeStyle;rounded=0;orthogonalLoop=1;jettySize=auto;html=1;" edge="1" parent="1" source="IDAZCTwYJbUhhLkXq8a2-1" target="IDAZCTwYJbUhhLkXq8a2-2">
          <mxGeometry relative="1" as="geometry" />
        </mxCell>
        <mxCell id="IDAZCTwYJbUhhLkXq8a2-1" value="start" style="ellipse;whiteSpace=wrap;html=1;" vertex="1" parent="1">
          <mxGeometry x="340" y="-70" width="120" height="80" as="geometry" />
        </mxCell>
        <mxCell id="IDAZCTwYJbUhhLkXq8a2-5" value="" style="edgeStyle=orthogonalEdgeStyle;rounded=0;orthogonalLoop=1;jettySize=auto;html=1;" edge="1" parent="1" source="IDAZCTwYJbUhhLkXq8a2-2" target="IDAZCTwYJbUhhLkXq8a2-4">
          <mxGeometry relative="1" as="geometry" />
        </mxCell>
        <mxCell id="IDAZCTwYJbUhhLkXq8a2-2" value="nhập a,b" style="shape=parallelogram;perimeter=parallelogramPerimeter;whiteSpace=wrap;html=1;fixedSize=1;" vertex="1" parent="1">
          <mxGeometry x="340" y="60" width="120" height="60" as="geometry" />
        </mxCell>
        <mxCell id="IDAZCTwYJbUhhLkXq8a2-9" value="" style="edgeStyle=orthogonalEdgeStyle;rounded=0;orthogonalLoop=1;jettySize=auto;html=1;" edge="1" parent="1" source="IDAZCTwYJbUhhLkXq8a2-4" target="IDAZCTwYJbUhhLkXq8a2-8">
          <mxGeometry relative="1" as="geometry" />
        </mxCell>
        <mxCell id="IDAZCTwYJbUhhLkXq8a2-4" value="i = a" style="whiteSpace=wrap;html=1;" vertex="1" parent="1">
          <mxGeometry x="340" y="160" width="120" height="60" as="geometry" />
        </mxCell>
        <mxCell id="IDAZCTwYJbUhhLkXq8a2-11" value="" style="edgeStyle=orthogonalEdgeStyle;rounded=0;orthogonalLoop=1;jettySize=auto;html=1;" edge="1" parent="1" source="IDAZCTwYJbUhhLkXq8a2-8" target="IDAZCTwYJbUhhLkXq8a2-10">
          <mxGeometry relative="1" as="geometry" />
        </mxCell>
        <mxCell id="IDAZCTwYJbUhhLkXq8a2-8" value="tăng i" style="whiteSpace=wrap;html=1;" vertex="1" parent="1">
          <mxGeometry x="340" y="270" width="120" height="60" as="geometry" />
        </mxCell>
        <mxCell id="IDAZCTwYJbUhhLkXq8a2-13" value="" style="edgeStyle=orthogonalEdgeStyle;rounded=0;orthogonalLoop=1;jettySize=auto;html=1;" edge="1" parent="1" source="IDAZCTwYJbUhhLkXq8a2-10" target="IDAZCTwYJbUhhLkXq8a2-12">
          <mxGeometry relative="1" as="geometry" />
        </mxCell>
        <mxCell id="IDAZCTwYJbUhhLkXq8a2-14" style="edgeStyle=orthogonalEdgeStyle;rounded=0;orthogonalLoop=1;jettySize=auto;html=1;exitX=0;exitY=0.5;exitDx=0;exitDy=0;entryX=0;entryY=0.5;entryDx=0;entryDy=0;" edge="1" parent="1" source="IDAZCTwYJbUhhLkXq8a2-10" target="IDAZCTwYJbUhhLkXq8a2-8">
          <mxGeometry relative="1" as="geometry">
            <mxPoint x="230" y="180" as="targetPoint" />
            <Array as="points">
              <mxPoint x="230" y="420" />
              <mxPoint x="230" y="300" />
            </Array>
          </mxGeometry>
        </mxCell>
        <mxCell id="IDAZCTwYJbUhhLkXq8a2-10" value="i mod a =0" style="rhombus;whiteSpace=wrap;html=1;" vertex="1" parent="1">
          <mxGeometry x="360" y="380" width="80" height="80" as="geometry" />
        </mxCell>
        <mxCell id="IDAZCTwYJbUhhLkXq8a2-17" style="edgeStyle=orthogonalEdgeStyle;rounded=0;orthogonalLoop=1;jettySize=auto;html=1;exitX=1;exitY=0.5;exitDx=0;exitDy=0;entryX=1;entryY=0.5;entryDx=0;entryDy=0;" edge="1" parent="1" source="IDAZCTwYJbUhhLkXq8a2-12" target="IDAZCTwYJbUhhLkXq8a2-8">
          <mxGeometry relative="1" as="geometry">
            <mxPoint x="570" y="220" as="targetPoint" />
            <Array as="points">
              <mxPoint x="571" y="580" />
              <mxPoint x="571" y="300" />
            </Array>
          </mxGeometry>
        </mxCell>
        <mxCell id="IDAZCTwYJbUhhLkXq8a2-21" value="" style="edgeStyle=orthogonalEdgeStyle;rounded=0;orthogonalLoop=1;jettySize=auto;html=1;" edge="1" parent="1" source="IDAZCTwYJbUhhLkXq8a2-12" target="IDAZCTwYJbUhhLkXq8a2-20">
          <mxGeometry relative="1" as="geometry" />
        </mxCell>
        <mxCell id="IDAZCTwYJbUhhLkXq8a2-12" value="i mod b&amp;nbsp; = 0" style="rhombus;whiteSpace=wrap;html=1;" vertex="1" parent="1">
          <mxGeometry x="360" y="540" width="80" height="80" as="geometry" />
        </mxCell>
        <mxCell id="IDAZCTwYJbUhhLkXq8a2-15" value="sai" style="text;html=1;align=center;verticalAlign=middle;resizable=0;points=[];autosize=1;strokeColor=none;fillColor=none;" vertex="1" parent="1">
          <mxGeometry x="190" y="340" width="40" height="30" as="geometry" />
        </mxCell>
        <mxCell id="IDAZCTwYJbUhhLkXq8a2-16" value="đúng" style="text;html=1;align=center;verticalAlign=middle;resizable=0;points=[];autosize=1;strokeColor=none;fillColor=none;" vertex="1" parent="1">
          <mxGeometry x="390" y="478" width="50" height="30" as="geometry" />
        </mxCell>
        <mxCell id="IDAZCTwYJbUhhLkXq8a2-19" value="sai" style="text;html=1;align=center;verticalAlign=middle;resizable=0;points=[];autosize=1;strokeColor=none;fillColor=none;" vertex="1" parent="1">
          <mxGeometry x="560" y="408" width="40" height="30" as="geometry" />
        </mxCell>
        <mxCell id="IDAZCTwYJbUhhLkXq8a2-24" value="" style="edgeStyle=orthogonalEdgeStyle;rounded=0;orthogonalLoop=1;jettySize=auto;html=1;" edge="1" parent="1" source="IDAZCTwYJbUhhLkXq8a2-20">
          <mxGeometry relative="1" as="geometry">
            <mxPoint x="400" y="790" as="targetPoint" />
          </mxGeometry>
        </mxCell>
        <mxCell id="IDAZCTwYJbUhhLkXq8a2-20" value="i" style="shape=parallelogram;perimeter=parallelogramPerimeter;whiteSpace=wrap;html=1;fixedSize=1;" vertex="1" parent="1">
          <mxGeometry x="340" y="660" width="120" height="60" as="geometry" />
        </mxCell>
        <mxCell id="IDAZCTwYJbUhhLkXq8a2-25" value="end" style="ellipse;whiteSpace=wrap;html=1;" vertex="1" parent="1">
          <mxGeometry x="340" y="790" width="120" height="80" as="geometry" />
        </mxCell>
        <mxCell id="IDAZCTwYJbUhhLkXq8a2-26" value="đúng" style="text;html=1;align=center;verticalAlign=middle;resizable=0;points=[];autosize=1;strokeColor=none;fillColor=none;" vertex="1" parent="1">
          <mxGeometry x="390" y="620" width="50" height="30" as="geometry" />
        </mxCell>
      </root>
    </mxGraphModel>
  </diagram>
</mxfile>
